<svg xmlns="http://www.w3.org/2000/svg" xml:space="preserve" width="800" height="800" viewBox="0 0 512 512"><path d="M412.628 372.855c76.213-42.133 113.192-159.915 94.648-206.03-72.085-20.053-144.172 5.599-162.707 27.661C372.822 83.003 300.736 19.235 255.994 2.79c-44.724 16.444-116.81 80.213-88.558 191.695-18.544-22.062-90.63-47.714-162.715-27.661-18.536 46.115 18.434 163.897 94.647 206.03-32.961 18.054-50.123 61.496-52.178 85.567 34.833 24.49 120.591 35.98 189.586-4.109v54.897h38.452v-54.897c68.986 40.089 154.753 28.598 189.587 4.109-2.063-24.07-19.225-67.513-52.187-85.566" style="fill:#000"/></svg>